<?xml version="1.0" encoding="UTF-8" standalone="no"?>
<!DOCTYPE svg PUBLIC "-//W3C//DTD SVG 1.1//EN" "http://www.w3.org/Graphics/SVG/1.1/DTD/svg11.dtd">
<svg width="100%" height="100%" viewBox="0 0 593 597" version="1.1" xmlns="http://www.w3.org/2000/svg" xmlns:xlink="http://www.w3.org/1999/xlink" xml:space="preserve" xmlns:serif="http://www.serif.com/" style="fill-rule:evenodd;clip-rule:evenodd;stroke-linejoin:round;stroke-miterlimit:2;">
    <g transform="matrix(1,0,0,1,-32856,-1520)">
        <g id="QIME-symbol" transform="matrix(0.870208,0,0,0.642874,5222.49,542.223)">
            <rect x="31755.5" y="1520.95" width="680.574" height="927.881" style="fill:none;"/>
            <g transform="matrix(1.68879,0,0,2.27197,30797.8,107.397)">
                <circle cx="771.36" cy="821.12" r="139.36" style="fill:rgb(23,39,55);"/>
            </g>
            <g transform="matrix(2.62405,0,0,3.53019,22578,-2840.07)">
                <path d="M3603.06,1257.43C3598.63,1258.47 3594.18,1255.7 3593.15,1251.23C3592.11,1246.77 3594.87,1242.3 3599.3,1241.26C3608.44,1239.11 3617.97,1237.97 3627.76,1237.97C3696.21,1237.97 3751.76,1293.57 3751.76,1362.02C3751.76,1396.78 3737.44,1428.23 3714.38,1450.76C3711.11,1453.95 3705.88,1453.88 3702.71,1450.59C3699.53,1447.3 3699.61,1442.04 3702.88,1438.85C3722.85,1419.34 3735.25,1392.12 3735.25,1362.02C3735.25,1302.71 3687.07,1254.58 3627.76,1254.58C3619.26,1254.58 3610.99,1255.56 3603.06,1257.43Z" style="fill:rgb(181,105,251);"/>
            </g>
            <g transform="matrix(2.62405,0,0,3.53019,22578,-2840.07)">
                <path d="M3725.9,1477.24C3729.93,1479.37 3731.49,1484.39 3729.37,1488.45C3727.26,1492.51 3722.26,1494.08 3718.23,1491.95L3698.59,1481.59C3698.59,1481.59 3682.74,1473.23 3682.74,1473.23C3674.97,1477.08 3666.73,1480.15 3658.14,1482.32C3648.42,1484.77 3638.24,1486.08 3627.76,1486.08C3559.3,1486.08 3503.75,1430.48 3503.75,1362.02C3503.75,1315.11 3529.84,1274.23 3568.3,1253.15C3572.3,1250.96 3577.32,1252.45 3579.5,1256.47C3581.68,1260.5 3580.2,1265.55 3576.2,1267.74C3542.88,1286 3520.26,1321.38 3520.26,1362.02C3520.26,1421.34 3568.44,1469.47 3627.76,1469.47C3636.85,1469.47 3645.69,1468.34 3654.13,1466.21C3662.84,1464.01 3671.14,1460.74 3678.86,1456.56C3681.27,1455.25 3684.18,1455.23 3686.6,1456.51L3725.9,1477.24Z" style="fill:rgb(181,105,251);"/>
            </g>
        </g>
    </g>
</svg>
